<svg xmlns="http://www.w3.org/2000/svg" version="1.1" xmlns:xlink="http://www.w3.org/1999/xlink" xmlns:svgjs="http://svgjs.dev/svgjs" width="1440" height="560" preserveAspectRatio="none" viewBox="0 0 1440 560"><g mask="url(&quot;#SvgjsMask1335&quot;)" fill="none"><rect width="1440" height="560" x="0" y="0" fill="url(&quot;#SvgjsLinearGradient1336&quot;)"></rect><path d="M600.782,228.708C643.453,230.178,684.401,209.597,706.567,173.106C729.593,135.199,730.935,88.076,709.938,49.009C687.753,7.732,647.623,-25.092,600.782,-23.721C555.698,-22.401,522.144,14.657,502.161,55.092C484.553,90.72,487.278,131.673,506.907,166.229C526.805,201.259,560.519,227.321,600.782,228.708" fill="rgba(28, 83, 142, 0.4)" class="triangle-float1"></path><path d="M1381.809,142.004C1402.868,141.17,1417.475,122.879,1426.993,104.074C1435.467,87.332,1436.717,67.949,1427.588,51.556C1418.204,34.705,1401.032,24.519,1381.809,22.937C1358.971,21.058,1332.746,23.208,1320.812,42.77C1308.572,62.835,1317.66,87.893,1329.968,107.917C1341.576,126.801,1359.66,142.881,1381.809,142.004" fill="rgba(28, 83, 142, 0.4)" class="triangle-float2"></path><path d="M1175.517,13.238C1193.303,14.286,1210.079,4.631,1219.319,-10.603C1228.917,-26.428,1231.72,-47.022,1221.371,-62.366C1211.84,-76.498,1192.562,-75.74,1175.517,-75.548C1158.967,-75.361,1139.854,-75.593,1131.42,-61.352C1122.895,-46.958,1131.316,-29.69,1139.83,-15.289C1148.136,-1.239,1159.223,12.278,1175.517,13.238" fill="rgba(28, 83, 142, 0.4)" class="triangle-float2"></path><path d="M424.063,450.066C459.88,447.501,491.654,430.207,511.304,400.151C533.324,366.47,548.761,324.243,529.381,288.977C509.496,252.792,465.346,242.117,424.063,241.395C381.142,240.645,335.489,249.139,312.169,285.181C287.087,323.946,286.186,376.212,312.113,414.417C335.683,449.15,382.195,453.064,424.063,450.066" fill="rgba(28, 83, 142, 0.4)" class="triangle-float3"></path><path d="M1131.803,234.613C1180.935,231.937,1226.676,208.102,1250.756,165.192C1274.348,123.152,1268.134,73.379,1246.442,30.328C1221.858,-18.462,1186.428,-69.874,1131.803,-70.881C1076.106,-71.908,1037.335,-22.35,1009.601,25.962C982.025,73.999,960.077,131.703,988.07,179.499C1015.864,226.955,1076.888,237.604,1131.803,234.613" fill="rgba(28, 83, 142, 0.4)" class="triangle-float2"></path><path d="M175.566,426.512C229.269,429.823,276.217,392.622,302.708,345.79C328.772,299.714,332.042,243.165,305.034,197.636C278.531,152.958,227.463,129.172,175.566,131.46C127.365,133.585,86.477,165.307,64.468,208.243C44.312,247.563,52.915,292.247,72.958,331.625C95.607,376.123,125.731,423.439,175.566,426.512" fill="rgba(28, 83, 142, 0.4)" class="triangle-float1"></path><path d="M976.982,576.507C1009.098,578.559,1042.934,564.852,1057.52,536.167C1071.209,509.247,1055.553,479.155,1039.491,453.579C1024.784,430.16,1004.636,408.062,976.982,407.925C949.144,407.787,926.654,428.479,913.388,452.953C900.797,476.181,900.401,503.41,912.492,526.902C925.795,552.747,947.973,574.654,976.982,576.507" fill="rgba(28, 83, 142, 0.4)" class="triangle-float2"></path><path d="M1129.075,139.053C1143.53,138.53,1157.478,133.582,1165.619,121.627C1174.977,107.884,1181.148,89.65,1172.303,75.571C1163.771,61.991,1145.05,62.042,1129.075,63.46C1115.965,64.624,1104.766,71.337,1097.37,82.224C1088.671,95.03,1080.099,110.931,1087.642,124.45C1095.289,138.156,1113.39,139.621,1129.075,139.053" fill="rgba(28, 83, 142, 0.4)" class="triangle-float1"></path><path d="M1049.931,337.802C1093.746,336.632,1124.007,298.129,1144.112,259.181C1162.286,223.974,1164.595,184.194,1147.733,148.34C1127.584,105.496,1097.252,60.436,1049.931,58.918C1000.969,57.347,962.623,97.927,940.622,141.696C920.901,180.928,925.235,226.102,946.614,264.456C968.653,303.996,1004.68,339.011,1049.931,337.802" fill="rgba(28, 83, 142, 0.4)" class="triangle-float2"></path></g><defs><mask id="SvgjsMask1335"><rect width="1440" height="560" fill="#ffffff"></rect></mask><linearGradient x1="50%" y1="0%" x2="50%" y2="100%" gradientUnits="userSpaceOnUse" id="SvgjsLinearGradient1336"><stop stop-color="rgba(0, 102, 158, 1)" offset="0.23"></stop><stop stop-color="rgba(0, 158, 153, 1)" offset="1"></stop></linearGradient><style>
                @keyframes float1 {
                    0%{transform: translate(0, 0)}
                    50%{transform: translate(-10px, 0)}
                    100%{transform: translate(0, 0)}
                }

                .triangle-float1 {
                    animation: float1 5s infinite;
                }

                @keyframes float2 {
                    0%{transform: translate(0, 0)}
                    50%{transform: translate(-5px, -5px)}
                    100%{transform: translate(0, 0)}
                }

                .triangle-float2 {
                    animation: float2 4s infinite;
                }

                @keyframes float3 {
                    0%{transform: translate(0, 0)}
                    50%{transform: translate(0, -10px)}
                    100%{transform: translate(0, 0)}
                }

                .triangle-float3 {
                    animation: float3 6s infinite;
                }
            </style></defs></svg>